<svg width="67" height="67" viewBox="0 0 67 67" fill="none" xmlns="http://www.w3.org/2000/svg">
<g clip-path="url(#clip0_3_22)">
<rect width="67" height="67" rx="33.5" fill="#28A745"/>
<path d="M51.0345 25.7087L47.8831 28.8601C47.5619 29.1814 47.0423 29.1814 46.721 28.8601L39.1331 21.2722C38.8119 20.9509 38.8119 20.4314 39.1331 20.1101L42.2845 16.9587C43.5628 15.6804 45.641 15.6804 46.9261 16.9587L51.0345 21.0671C52.3197 22.3455 52.3197 24.4236 51.0345 25.7087ZM36.4261 22.8171L18.4749 40.7683L17.0257 49.0739C16.8275 50.195 17.805 51.1657 18.9261 50.9743L27.2318 49.5183L45.183 31.5671C45.5042 31.2458 45.5042 30.7263 45.183 30.405L37.5951 22.8171C37.2669 22.4958 36.7474 22.4958 36.4261 22.8171V22.8171ZM25.4818 39.2302C25.1058 38.8542 25.1058 38.2527 25.4818 37.8767L36.0091 27.3494C36.3851 26.9734 36.9867 26.9734 37.3626 27.3494C37.7386 27.7253 37.7386 28.3269 37.3626 28.7029L26.8353 39.2302C26.4593 39.6062 25.8578 39.6062 25.4818 39.2302V39.2302ZM23.014 44.9792H26.2953V47.4607L21.8861 48.2331L19.7601 46.1072L20.5326 41.698H23.014V44.9792Z" fill="white"/>
</g>
<defs>
<clipPath id="clip0_3_22">
<rect width="67" height="67" fill="white"/>
</clipPath>
</defs>
</svg>
