<svg width="67" height="68" viewBox="0 0 67 68" fill="none" xmlns="http://www.w3.org/2000/svg">
<rect width="67" height="67" rx="33.5" fill="#28A745"/>
<path d="M39.0625 21.5625C39.0625 17.9381 36.1244 15 32.5 15C28.8756 15 25.9375 17.9381 25.9375 21.5625C25.9375 25.1869 28.8756 28.125 32.5 28.125C36.1244 28.125 39.0625 25.1869 39.0625 21.5625ZM30.9681 31.4814C26.9123 28.9986 20.343 28.3164 17.0371 28.1284C15.9263 28.0655 15 28.9118 15 29.9803V45.2107C15 46.1903 15.7923 47.0072 16.8108 47.0599C19.7954 47.2164 25.8336 47.7899 30.0069 49.892C30.6475 50.2146 31.4069 49.7751 31.4069 49.0806V32.2648C31.4062 31.9456 31.2483 31.653 30.9681 31.4814ZM47.9629 28.1284C44.6577 28.3157 38.0877 28.9986 34.0326 31.4814C33.7523 31.653 33.5944 31.9572 33.5944 32.2765V49.0785C33.5944 49.7751 34.356 50.2153 34.9985 49.892C39.1712 47.792 45.206 47.2185 48.1898 47.0619C49.2084 47.0086 50.0007 46.1917 50.0007 45.2121V29.9803C50 28.9118 49.0737 28.0655 47.9629 28.1284V28.1284Z" fill="white"/>
</svg>
