<svg width="67" height="67" viewBox="0 0 67 67" fill="none" xmlns="http://www.w3.org/2000/svg">
<rect width="67" height="67" rx="33.5" fill="#28A745"/>
<path d="M49.8125 24.5625V25.6563C49.8125 25.8013 49.7549 25.9404 49.6523 26.043C49.5498 26.1455 49.4107 26.2031 49.2656 26.2031H47.625V27.0235C47.625 27.4765 47.2577 27.8438 46.8047 27.8438H20.0078C19.5548 27.8438 19.1875 27.4765 19.1875 27.0235V26.2031H17.5469C17.4018 26.2031 17.2627 26.1455 17.1602 26.043C17.0576 25.9404 17 25.8013 17 25.6563V24.5625C17 24.4543 17.0321 24.3486 17.0922 24.2586C17.1523 24.1687 17.2378 24.0986 17.3378 24.0572L33.1971 18.0416C33.331 17.9861 33.4815 17.9861 33.6154 18.0416L49.4747 24.0572C49.5747 24.0986 49.6602 24.1687 49.7203 24.2586C49.7804 24.3486 49.8125 24.4543 49.8125 24.5625V24.5625ZM48.1719 45.3438H18.6406C17.7345 45.3438 17 46.0783 17 46.9844V48.0781C17 48.2232 17.0576 48.3623 17.1602 48.4648C17.2627 48.5674 17.4018 48.625 17.5469 48.625H49.2656C49.4107 48.625 49.5498 48.5674 49.6523 48.4648C49.7549 48.3623 49.8125 48.2232 49.8125 48.0781V46.9844C49.8125 46.0783 49.078 45.3438 48.1719 45.3438ZM22.4688 28.9375V42.0625H20.0078C19.5548 42.0625 19.1875 42.4298 19.1875 42.8828V44.25H47.625V42.8828C47.625 42.4298 47.2577 42.0625 46.8047 42.0625H44.3438V28.9375H39.9688V42.0625H35.5938V28.9375H31.2188V42.0625H26.8438V28.9375H22.4688Z" fill="white"/>
</svg>
